<mxfile host="app.diagrams.net" agent="Mozilla/5.0 (Windows NT 10.0; Win64; x64) AppleWebKit/537.36 (KHTML, like Gecko) Chrome/137.0.0.0 Safari/537.36" version="27.1.4">
  <diagram name="PÃ¡gina-1" id="iLDqahf4bN_4aF71JvzJ">
    <mxGraphModel dx="872" dy="431" grid="1" gridSize="10" guides="1" tooltips="1" connect="1" arrows="1" fold="1" page="1" pageScale="1" pageWidth="827" pageHeight="1169" math="0" shadow="0">
      <root>
        <mxCell id="0" />
        <mxCell id="1" parent="0" />
        <mxCell id="6K3RyEjbQ66eCPD4KDvN-1" value="" style="rounded=0;whiteSpace=wrap;html=1;" vertex="1" parent="1">
          <mxGeometry x="40" y="40" width="760" height="400" as="geometry" />
        </mxCell>
        <mxCell id="6K3RyEjbQ66eCPD4KDvN-2" value="100" style="rounded=1;whiteSpace=wrap;html=1;fillColor=#1ba1e2;fontColor=light-dark(#FFFFFF,#D5E8D4);strokeColor=#006EAF;sketch=1;curveFitting=1;jiggle=2;" vertex="1" parent="1">
          <mxGeometry x="180" y="80" width="120" height="60" as="geometry" />
        </mxCell>
        <mxCell id="6K3RyEjbQ66eCPD4KDvN-3" value="100 K" style="rounded=1;whiteSpace=wrap;html=1;fillColor=#1ba1e2;fontColor=light-dark(#FFFFFF,#D5E8D4);strokeColor=#006EAF;sketch=1;curveFitting=1;jiggle=2;" vertex="1" parent="1">
          <mxGeometry x="340" y="80" width="120" height="60" as="geometry" />
        </mxCell>
        <mxCell id="6K3RyEjbQ66eCPD4KDvN-4" value="200" style="rounded=1;whiteSpace=wrap;html=1;fillColor=#1ba1e2;fontColor=light-dark(#FFFFFF,#D5E8D4);strokeColor=#006EAF;sketch=1;curveFitting=1;jiggle=2;" vertex="1" parent="1">
          <mxGeometry x="650" y="80" width="120" height="60" as="geometry" />
        </mxCell>
        <mxCell id="6K3RyEjbQ66eCPD4KDvN-5" value="200" style="rounded=1;whiteSpace=wrap;html=1;fillColor=#1ba1e2;fontColor=light-dark(#FFFFFF,#D5E8D4);strokeColor=#006EAF;sketch=1;curveFitting=1;jiggle=2;" vertex="1" parent="1">
          <mxGeometry x="500" y="80" width="120" height="60" as="geometry" />
        </mxCell>
        <mxCell id="6K3RyEjbQ66eCPD4KDvN-6" value="" style="rounded=1;whiteSpace=wrap;html=1;sketch=1;curveFitting=1;jiggle=2;fillColor=#1ba1e2;fontColor=#ffffff;strokeColor=#006EAF;" vertex="1" parent="1">
          <mxGeometry x="50" y="250" width="90" height="170" as="geometry" />
        </mxCell>
        <mxCell id="6K3RyEjbQ66eCPD4KDvN-53" value="" style="verticalLabelPosition=bottom;shadow=0;dashed=0;align=center;html=1;verticalAlign=top;strokeWidth=1;shape=mxgraph.mockup.graphics.pieChart;strokeColor=#008cff;parts=10,20,35;partColors=#e0e0e0,#d0d0d0,#c0c0c0,#b0b0b0,#a0a0a0;strokeWidth=2;" vertex="1" parent="1">
          <mxGeometry x="180" y="170" width="100" height="100" as="geometry" />
        </mxCell>
        <mxCell id="6K3RyEjbQ66eCPD4KDvN-54" value="" style="verticalLabelPosition=bottom;shadow=0;dashed=0;align=center;html=1;verticalAlign=top;strokeWidth=1;shape=mxgraph.mockup.graphics.pieChart;strokeColor=#008cff;parts=10,20,35;partColors=#e0e0e0,#d0d0d0,#c0c0c0,#b0b0b0,#a0a0a0;strokeWidth=2;" vertex="1" parent="1">
          <mxGeometry x="650" y="165" width="110" height="110" as="geometry" />
        </mxCell>
        <mxCell id="6K3RyEjbQ66eCPD4KDvN-55" value="" style="verticalLabelPosition=bottom;shadow=0;dashed=0;align=center;html=1;verticalAlign=top;strokeWidth=1;shape=mxgraph.mockup.graphics.lineChart;strokeColor=none;strokeColor2=#666666;strokeColor3=#008cff;strokeColor4=#dddddd;" vertex="1" parent="1">
          <mxGeometry x="290" y="160" width="350" height="120" as="geometry" />
        </mxCell>
        <mxCell id="6K3RyEjbQ66eCPD4KDvN-56" value="" style="verticalLabelPosition=bottom;shadow=0;dashed=0;align=center;html=1;verticalAlign=top;strokeWidth=1;shape=mxgraph.mockup.graphics.columnChart;strokeColor=none;strokeColor2=none;strokeColor3=#666666;fillColor2=#008cff;fillColor3=#dddddd;" vertex="1" parent="1">
          <mxGeometry x="490" y="306" width="290" height="120" as="geometry" />
        </mxCell>
        <mxCell id="6K3RyEjbQ66eCPD4KDvN-57" value="" style="verticalLabelPosition=bottom;shadow=0;dashed=0;align=center;html=1;verticalAlign=top;strokeWidth=1;shape=mxgraph.mockup.graphics.barChart;strokeColor=none;strokeColor2=none;strokeColor3=#666666;fillColor2=#008cff;fillColor3=#dddddd;" vertex="1" parent="1">
          <mxGeometry x="186" y="295" width="284" height="130" as="geometry" />
        </mxCell>
        <mxCell id="6K3RyEjbQ66eCPD4KDvN-58" value="" style="rounded=1;whiteSpace=wrap;html=1;fillColor=#1ba1e2;fontColor=#ffffff;strokeColor=#006EAF;sketch=1;curveFitting=1;jiggle=2;" vertex="1" parent="1">
          <mxGeometry x="50" y="80" width="90" height="120" as="geometry" />
        </mxCell>
        <mxCell id="6K3RyEjbQ66eCPD4KDvN-59" value="2022" style="strokeWidth=1;shadow=0;dashed=0;align=center;html=1;shape=mxgraph.mockup.text.textBox;fontColor=#666666;align=left;fontSize=14;spacingLeft=4;spacingTop=-3;whiteSpace=wrap;strokeColor=#666666;mainText=;verticalAlign=middle;" vertex="1" parent="1">
          <mxGeometry x="55" y="95" width="80" height="25" as="geometry" />
        </mxCell>
        <mxCell id="6K3RyEjbQ66eCPD4KDvN-60" value="2023" style="strokeWidth=1;shadow=0;dashed=0;align=center;html=1;shape=mxgraph.mockup.text.textBox;fontColor=#666666;align=left;fontSize=14;spacingLeft=4;spacingTop=-3;whiteSpace=wrap;strokeColor=#666666;mainText=;verticalAlign=middle;" vertex="1" parent="1">
          <mxGeometry x="55" y="130" width="80" height="25" as="geometry" />
        </mxCell>
        <mxCell id="6K3RyEjbQ66eCPD4KDvN-61" value="2024" style="strokeWidth=1;shadow=0;dashed=0;align=center;html=1;shape=mxgraph.mockup.text.textBox;fontColor=#666666;align=left;fontSize=14;spacingLeft=4;spacingTop=-3;whiteSpace=wrap;strokeColor=#666666;mainText=;verticalAlign=middle;" vertex="1" parent="1">
          <mxGeometry x="55" y="165" width="80" height="25" as="geometry" />
        </mxCell>
        <mxCell id="6K3RyEjbQ66eCPD4KDvN-62" value="Jan" style="strokeWidth=1;shadow=0;dashed=0;align=center;html=1;shape=mxgraph.mockup.text.textBox;fontColor=#666666;align=left;fontSize=14;spacingLeft=4;spacingTop=-3;whiteSpace=wrap;strokeColor=#666666;mainText=;verticalAlign=middle;" vertex="1" parent="1">
          <mxGeometry x="55" y="270" width="80" height="25" as="geometry" />
        </mxCell>
        <mxCell id="6K3RyEjbQ66eCPD4KDvN-63" value="Feb" style="strokeWidth=1;shadow=0;dashed=0;align=center;html=1;shape=mxgraph.mockup.text.textBox;fontColor=#666666;align=left;fontSize=14;spacingLeft=4;spacingTop=-3;whiteSpace=wrap;strokeColor=#666666;mainText=;verticalAlign=middle;" vertex="1" parent="1">
          <mxGeometry x="55" y="300" width="80" height="25" as="geometry" />
        </mxCell>
        <mxCell id="6K3RyEjbQ66eCPD4KDvN-64" value="Mar" style="strokeWidth=1;shadow=0;dashed=0;align=center;html=1;shape=mxgraph.mockup.text.textBox;fontColor=#666666;align=left;fontSize=14;spacingLeft=4;spacingTop=-3;whiteSpace=wrap;strokeColor=#666666;mainText=;verticalAlign=middle;" vertex="1" parent="1">
          <mxGeometry x="55" y="330" width="80" height="25" as="geometry" />
        </mxCell>
        <mxCell id="6K3RyEjbQ66eCPD4KDvN-65" value="Apr" style="strokeWidth=1;shadow=0;dashed=0;align=center;html=1;shape=mxgraph.mockup.text.textBox;fontColor=#666666;align=left;fontSize=14;spacingLeft=4;spacingTop=-3;whiteSpace=wrap;strokeColor=#666666;mainText=;verticalAlign=middle;" vertex="1" parent="1">
          <mxGeometry x="55" y="360" width="80" height="25" as="geometry" />
        </mxCell>
      </root>
    </mxGraphModel>
  </diagram>
</mxfile>
